<svg width="68" height="71" viewBox="0 0 68 71" fill="none" xmlns="http://www.w3.org/2000/svg">
<g filter="url(#filter0_d_193_54)">
<path d="M51.4375 20.3333V25.6709C50.3008 25.5184 49.0092 25.4421 47.5625 25.4167V20.3333C47.5625 12.3271 45.2633 6.98959 34 6.98959C22.7367 6.98959 20.4375 12.3271 20.4375 20.3333V25.4167C18.9908 25.4421 17.6992 25.5184 16.5625 25.6709V20.3333C16.5625 12.9625 18.3708 3.17709 34 3.17709C49.6292 3.17709 51.4375 12.9625 51.4375 20.3333Z" fill="#003BB3"/>
<path opacity="0.4" d="M59.8333 38.125V43.2083C59.8333 53.375 57.25 55.9167 46.9167 55.9167H21.0833C10.75 55.9167 8.16666 53.375 8.16666 43.2083V38.125C8.16666 29.6358 9.97499 26.4588 16.5625 25.6708C17.6992 25.5183 18.9908 25.4421 20.4375 25.4167H47.5625C49.0092 25.4421 50.3008 25.5183 51.4375 25.6708C58.025 26.4588 59.8333 29.6358 59.8333 38.125Z" fill="#003BB3"/>
<path d="M23.6667 43.2083C23.3308 43.2083 22.995 43.1321 22.685 43.005C22.3492 42.8779 22.0909 42.7 21.8325 42.4713C21.3675 41.9884 21.0833 41.3275 21.0833 40.6667C21.0833 40.3363 21.1608 40.0058 21.29 39.7008C21.4191 39.3958 21.6 39.1162 21.8325 38.8621C22.0909 38.6333 22.3492 38.4554 22.685 38.3284C23.6408 37.9217 24.7775 38.1504 25.5008 38.8621C25.7333 39.1162 25.9142 39.3958 26.0434 39.7008C26.1725 40.0058 26.25 40.3363 26.25 40.6667C26.25 41.3275 25.9658 41.9884 25.5008 42.4713C25.01 42.9288 24.3383 43.2083 23.6667 43.2083Z" fill="#003BB3"/>
<path d="M34 43.2083C33.3025 43.2083 32.6567 42.9288 32.1658 42.4713C31.9333 42.2171 31.7525 41.9375 31.6233 41.6325C31.4941 41.3275 31.4167 40.9971 31.4167 40.6667C31.4167 39.9804 31.7008 39.345 32.1658 38.8621C33.1217 37.9217 34.8525 37.9217 35.8341 38.8621C36.2991 39.345 36.5833 39.9804 36.5833 40.6667C36.5833 40.9971 36.5059 41.3275 36.3767 41.6325C36.2475 41.9375 36.0666 42.2171 35.8341 42.4713C35.3433 42.9288 34.6717 43.2083 34 43.2083Z" fill="#003BB3"/>
<path d="M44.3333 43.2083C43.6617 43.2083 42.99 42.9288 42.4992 42.4713C42.0342 41.9884 41.75 41.3529 41.75 40.6667C41.75 39.9804 42.0342 39.345 42.4992 38.8621C43.4809 37.9217 45.2116 37.9217 46.1675 38.8621C46.2708 38.9892 46.3741 39.1163 46.4775 39.2688C46.5808 39.3958 46.6584 39.5483 46.71 39.7008C46.7875 39.8533 46.8392 40.0059 46.865 40.1584C46.8909 40.3363 46.9167 40.5142 46.9167 40.6667C46.9167 41.3275 46.6325 41.9884 46.1675 42.4713C45.6766 42.9288 45.005 43.2083 44.3333 43.2083Z" fill="#003BB3"/>
</g>
<defs>
<filter id="filter0_d_193_54" x="-5" y="-1" width="78" height="77" filterUnits="userSpaceOnUse" color-interpolation-filters="sRGB">
<feFlood flood-opacity="0" result="BackgroundImageFix"/>
<feColorMatrix in="SourceAlpha" type="matrix" values="0 0 0 0 0 0 0 0 0 0 0 0 0 0 0 0 0 0 127 0" result="hardAlpha"/>
<feOffset dy="7"/>
<feGaussianBlur stdDeviation="4"/>
<feComposite in2="hardAlpha" operator="out"/>
<feColorMatrix type="matrix" values="0 0 0 0 0 0 0 0 0 0 0 0 0 0 0 0 0 0 0.25 0"/>
<feBlend mode="normal" in2="BackgroundImageFix" result="effect1_dropShadow_193_54"/>
<feBlend mode="normal" in="SourceGraphic" in2="effect1_dropShadow_193_54" result="shape"/>
</filter>
</defs>
</svg>
