<svg width="26" height="25" viewBox="0 0 26 25" fill="none" xmlns="http://www.w3.org/2000/svg">
<g clip-path="url(#clip0_937_240)">
<path d="M21.8009 21.3014H18.0967V15.5003C18.0967 14.117 18.072 12.3363 16.1702 12.3363C14.2409 12.3363 13.9457 13.8435 13.9457 15.3996V21.301H10.2416V9.37172H13.7975V11.002H13.8473C14.2032 10.3935 14.7174 9.89292 15.3353 9.55357C15.9531 9.21422 16.6515 9.0488 17.3559 9.07494C21.1103 9.07494 21.8025 11.5445 21.8025 14.7572L21.8009 21.3014ZM6.06187 7.74115C4.87466 7.74135 3.91206 6.77904 3.91187 5.59183C3.91167 4.40463 4.87388 3.44203 6.06108 3.44183C7.24829 3.44154 8.21089 4.40385 8.21108 5.59105C8.21119 6.16117 7.98481 6.70799 7.58176 7.11121C7.17871 7.51442 6.63199 7.74102 6.06187 7.74115ZM7.91401 21.3015H4.20591V9.37172H7.91392L7.91401 21.3015ZM23.6476 0.00169745H2.34458C1.33774 -0.00963067 0.512061 0.796912 0.499756 1.80375V23.1956C0.51167 24.203 1.33726 25.0103 2.34448 24.9997H23.6476C24.657 25.0122 25.4858 24.2049 25.4998 23.1956V1.80209C25.4854 0.793299 24.6565 -0.0131463 23.6476 3.72942e-05" fill="#D6D6D6"/>
</g>
<defs>
<clipPath id="clip0_937_240">
<rect width="25" height="25" fill="white" transform="translate(0.5)"/>
</clipPath>
</defs>
</svg>
