<svg width="37" height="25" viewBox="0 0 37 25" fill="none" xmlns="http://www.w3.org/2000/svg">
<g clip-path="url(#clip0_937_246)">
<path d="M35.5813 3.89931C35.3752 3.14563 34.9731 2.45853 34.4151 1.90643C33.8571 1.35432 33.1626 0.956474 32.4008 0.7525C29.612 0 18.388 0 18.388 0C18.388 0 7.16345 0.0227777 4.37465 0.775278C3.61287 0.979264 2.9184 1.37713 2.36038 1.92926C1.80237 2.4814 1.40029 3.16852 1.19418 3.92222C0.350631 8.82472 0.0234034 16.295 1.21734 21.0014C1.42347 21.7551 1.82557 22.4422 2.38358 22.9943C2.94159 23.5464 3.63605 23.9442 4.39781 24.1482C7.18662 24.9007 18.4109 24.9007 18.4109 24.9007C18.4109 24.9007 29.6351 24.9007 32.4237 24.1482C33.1855 23.9442 33.88 23.5464 34.438 22.9943C34.9961 22.4422 35.3982 21.7551 35.6043 21.0014C36.4941 16.0919 36.7682 8.62625 35.5813 3.89931Z" fill="#FF0000"/>
<path d="M14.8154 17.7862L24.1266 12.4503L14.8154 7.1145V17.7862Z" fill="white"/>
</g>
<defs>
<clipPath id="clip0_937_246">
<rect width="35.9375" height="25" fill="white" transform="translate(0.4375)"/>
</clipPath>
</defs>
</svg>
