<svg width="25" height="25" viewBox="0 0 25 25" fill="none" xmlns="http://www.w3.org/2000/svg">
<g clip-path="url(#clip0_937_231)">
<path d="M10.4167 24.8611C4.51389 23.8194 0 18.6806 0 12.5C0 5.625 5.625 0 12.5 0C19.375 0 25 5.625 25 12.5C25 18.6806 20.4861 23.8194 14.5833 24.8611L13.8889 24.3056H11.1111L10.4167 24.8611Z" fill="url(#paint0_linear_937_231)"/>
<path d="M17.3612 15.9722L17.9167 12.5H14.5834V10.0694C14.5834 9.0972 14.9306 8.33331 16.4584 8.33331H18.0556V5.13886C17.1529 4.99997 16.1806 4.86108 15.2779 4.86108C12.4306 4.86108 10.4167 6.5972 10.4167 9.7222V12.5H7.29175V15.9722H10.4167V24.7916C11.1112 24.9305 11.8056 25 12.5001 25C13.1945 25 13.889 24.9305 14.5834 24.7916V15.9722H17.3612Z" fill="white"/>
<g clip-path="url(#clip1_937_231)">
<path d="M10.4167 24.8611C4.51389 23.8194 0 18.6806 0 12.5C0 5.625 5.625 0 12.5 0C19.375 0 25 5.625 25 12.5C25 18.6806 20.4861 23.8194 14.5833 24.8611L13.8889 24.3056H11.1111L10.4167 24.8611Z" fill="url(#paint1_linear_937_231)"/>
<path d="M17.3612 15.9722L17.9167 12.5H14.5834V10.0694C14.5834 9.0972 14.9306 8.33331 16.4584 8.33331H18.0556V5.13886C17.1529 4.99997 16.1806 4.86108 15.2779 4.86108C12.4306 4.86108 10.4167 6.5972 10.4167 9.7222V12.5H7.29175V15.9722H10.4167V24.7916C11.1112 24.9305 11.8056 25 12.5001 25C13.1945 25 13.889 24.9305 14.5834 24.7916V15.9722H17.3612Z" fill="white"/>
</g>
<g clip-path="url(#clip2_937_231)">
<path d="M10.4167 24.8611C4.51389 23.8194 0 18.6806 0 12.5C0 5.625 5.625 0 12.5 0C19.375 0 25 5.625 25 12.5C25 18.6806 20.4861 23.8194 14.5833 24.8611L13.8889 24.3056H11.1111L10.4167 24.8611Z" fill="url(#paint2_linear_937_231)"/>
<path d="M17.3612 15.9722L17.9167 12.5H14.5834V10.0694C14.5834 9.0972 14.9306 8.33331 16.4584 8.33331H18.0556V5.13886C17.1529 4.99997 16.1806 4.86108 15.2779 4.86108C12.4306 4.86108 10.4167 6.5972 10.4167 9.7222V12.5H7.29175V15.9722H10.4167V24.7916C11.1112 24.9305 11.8056 25 12.5001 25C13.1945 25 13.889 24.9305 14.5834 24.7916V15.9722H17.3612Z" fill="#D6D6D6"/>
</g>
</g>
<defs>
<linearGradient id="paint0_linear_937_231" x1="1250" y1="2413.47" x2="1250" y2="0" gradientUnits="userSpaceOnUse">
</linearGradient>
<linearGradient id="paint1_linear_937_231" x1="1250" y1="2413.47" x2="1250" y2="0" gradientUnits="userSpaceOnUse">
</linearGradient>
<linearGradient id="paint2_linear_937_231" x1="1250" y1="2413.47" x2="1250" y2="0" gradientUnits="userSpaceOnUse">
<stop stop-color="white"/>
<stop offset="1" stop-color="white"/>
</linearGradient>
<clipPath id="clip0_937_231">
<rect width="25" height="25" fill="white"/>
</clipPath>
<clipPath id="clip1_937_231">
<rect width="25" height="25" fill="white"/>
</clipPath>
<clipPath id="clip2_937_231">
<rect width="25" height="25" fill="white"/>
</clipPath>
</defs>
</svg>
