<svg width="51" height="51" viewBox="0 0 51 51" fill="none" xmlns="http://www.w3.org/2000/svg">
<path d="M31.8745 32.9375C31.8745 40.5663 25.6908 46.75 18.062 46.75C10.4333 46.75 4.24951 40.5663 4.24951 32.9375C4.24951 25.3088 10.4333 19.125 18.062 19.125C18.4233 19.125 18.8057 19.1463 19.167 19.1675C25.9032 19.6988 31.3008 25.0962 31.832 31.8325C31.8533 32.1937 31.8745 32.5763 31.8745 32.9375Z" fill="#0039BA"/>
<path opacity="0.4" d="M46.7495 18.0625C46.7495 25.6913 40.5658 31.875 32.937 31.875C32.5758 31.875 32.1933 31.8537 31.832 31.8325C31.3008 25.0962 25.9032 19.6988 19.167 19.1675C19.1457 18.8063 19.1245 18.4238 19.1245 18.0625C19.1245 10.4338 25.3083 4.25 32.937 4.25C40.5658 4.25 46.7495 10.4338 46.7495 18.0625Z" fill="#0039BA"/>
<path d="M11.8783 4.25H6.37451C5.20576 4.25 4.24951 5.20625 4.24951 6.375V11.8787C4.24951 13.77 6.54449 14.7263 7.88324 13.3875L13.387 7.88376C14.7045 6.54501 13.7695 4.25 11.8783 4.25Z" fill="#0039BA"/>
<path d="M39.1207 46.7501H44.6244C45.7931 46.7501 46.7494 45.7938 46.7494 44.6251V39.1213C46.7494 37.2301 44.4544 36.2738 43.1157 37.6126L37.6119 43.1163C36.2944 44.4551 37.2294 46.7501 39.1207 46.7501Z" fill="#0039BA"/>
</svg>
