<svg width="22" height="20" viewBox="0 0 22 20" fill="none" xmlns="http://www.w3.org/2000/svg">
<path d="M9 14.5033H5.21C1.84 14.5033 1 13.7167 1 10.5609V4.94236C1 1.7866 1.84 1 5.21 1H15.74C19.11 1 19.95 1.7866 19.95 4.94236" stroke="white" stroke-width="1.5" stroke-linecap="round" stroke-linejoin="round"/>
<path d="M9 18.7358V14.5032" stroke="white" stroke-width="1.5" stroke-linecap="round" stroke-linejoin="round"/>
<path d="M1 10.7576H9" stroke="white" stroke-width="1.5" stroke-linecap="round" stroke-linejoin="round"/>
<path d="M5.74023 18.7358H9.00023" stroke="white" stroke-width="1.5" stroke-linecap="round" stroke-linejoin="round"/>
<path d="M20.9998 10.617V15.964C20.9998 18.1834 20.4098 18.7359 18.0398 18.7359H14.4898C12.1198 18.7359 11.5298 18.1834 11.5298 15.964V10.617C11.5298 8.39771 12.1198 7.84521 14.4898 7.84521H18.0398C20.4098 7.84521 20.9998 8.39771 20.9998 10.617Z" stroke="white" stroke-width="1.5" stroke-linecap="round" stroke-linejoin="round"/>
</svg>
