<svg width="42" height="42" viewBox="0 0 42 42" fill="none" xmlns="http://www.w3.org/2000/svg">
<path d="M16.8875 24.1499L19.705 26.3374C20.0725 26.7049 20.895 26.8798 21.4375 26.8798H24.9025C25.9875 26.8798 27.1775 26.0574 27.4575 24.9724L29.645 18.3398C30.1 17.0623 29.2775 15.9773 27.9125 15.9773H24.2725C23.73 15.9773 23.275 15.5223 23.3625 14.8923L23.8175 11.9873C23.9925 11.1648 23.45 10.2548 22.6275 9.99226C21.8925 9.71226 20.9825 10.0797 20.6325 10.6222L16.905 16.1698" stroke="white" stroke-width="2" stroke-miterlimit="10"/>
<path d="M12.25 24.1499V15.2422C12.25 13.9647 12.7925 13.5098 14.07 13.5098H14.98C16.2575 13.5098 16.8 13.9647 16.8 15.2422V24.1499C16.8 25.4274 16.2575 25.8824 14.98 25.8824H14.07C12.7925 25.8824 12.25 25.4274 12.25 24.1499Z" stroke="white" stroke-width="2" stroke-linecap="round" stroke-linejoin="round"/>
<path d="M31.5 33.005H30.17C28.77 33.005 27.44 33.5475 26.46 34.5275L23.4675 37.4851C22.1025 38.8326 19.88 38.8326 18.515 37.4851L15.5225 34.5275C14.5425 33.5475 13.195 33.005 11.8125 33.005H10.5C7.595 33.005 5.25 30.6776 5.25 27.8076V8.71503C5.25 5.84503 7.595 3.51758 10.5 3.51758H31.5C34.405 3.51758 36.75 5.84503 36.75 8.71503V27.8076C36.75 30.6601 34.405 33.005 31.5 33.005Z" stroke="white" stroke-width="2" stroke-miterlimit="10" stroke-linecap="round" stroke-linejoin="round"/>
</svg>
