<svg width="52" height="52" viewBox="0 0 52 52" xmlns="http://www.w3.org/2000/svg">
<path d="M39 4.33337H13C9.40333 4.33337 6.5 7.21504 6.5 10.7684V34.4067C6.5 37.96 9.40333 40.8417 13 40.8417H14.6467C16.38 40.8417 18.0267 41.5134 19.24 42.7267L22.945 46.3884C24.635 48.0567 27.3867 48.0567 29.0767 46.3884L32.7817 42.7267C33.995 41.5134 35.6633 40.8417 37.375 40.8417H39C42.5967 40.8417 45.5 37.96 45.5 34.4067V10.7684C45.5 7.21504 42.5967 4.33337 39 4.33337ZM22.49 28.1884C23.3783 28.1884 24.115 28.925 24.115 29.8134C24.115 30.7017 23.3783 31.4384 22.49 31.4384H16.6833C15.73 31.4384 14.8417 30.9834 14.2783 30.2034C13.7367 29.4667 13.6067 28.5567 13.8667 27.69C14.625 25.3717 16.4883 24.115 18.135 22.9884C19.8683 21.8184 20.8433 21.0817 20.8433 19.825C20.8433 18.6984 19.9333 17.7884 18.8067 17.7884C17.68 17.7884 16.7917 18.72 16.7917 19.8467C16.7917 20.735 16.055 21.4717 15.1667 21.4717C14.2783 21.4717 13.5417 20.735 13.5417 19.8467C13.5417 16.9434 15.9033 14.56 18.8283 14.56C21.7533 14.56 24.115 16.9217 24.115 19.8467C24.115 22.9017 21.8183 24.4617 19.9767 25.7184C18.8283 26.4984 17.745 27.235 17.2033 28.21H22.49V28.1884ZM36.8333 28.34H36.3783V29.835C36.3783 30.7234 35.6417 31.46 34.7533 31.46C33.865 31.46 33.1283 30.7234 33.1283 29.835V28.34H28.8817C28.8817 28.34 28.8817 28.34 28.86 28.34C27.7983 28.34 26.8233 27.7767 26.2817 26.8667C25.74 25.935 25.74 24.7867 26.2817 23.8767C27.755 21.3417 29.4667 18.46 31.0267 15.9467C31.72 14.8417 33.0417 14.3434 34.2767 14.69C35.5117 15.0584 36.3783 16.185 36.3567 17.485V25.1117H36.8333C37.7217 25.1117 38.4583 25.8484 38.4583 26.7367C38.4583 27.625 37.7217 28.34 36.8333 28.34Z"/>
<path d="M33.1283 25.09V18.72C31.85 20.8 30.5283 23.0316 29.3367 25.0683H33.1283V25.09Z"/>
</svg>
