<svg width="20" height="21" viewBox="0 0 20 21" fill="none" xmlns="http://www.w3.org/2000/svg">
<path d="M11.92 9.74796C12.22 8.64297 11.51 7.52862 10.33 7.2477C9.15003 6.96677 7.96002 7.63163 7.66002 8.73662C7.36002 9.8416 8.07003 10.956 9.25003 11.2369C9.61003 11.3212 9.98003 11.3212 10.33 11.2369C11.11 11.059 11.73 10.4784 11.92 9.74796Z" stroke="#0039BA" stroke-width="1.5" stroke-linecap="round" stroke-linejoin="round"/>
<path d="M15.8 15.226C19.34 12.1171 19.51 6.91053 16.19 3.59558C12.87 0.280622 7.31 0.121429 3.77 3.23037C2 4.78484 1 6.95735 1 9.23287C1 11.5178 2.02 13.6996 3.81 15.2541" stroke="#0039BA" stroke-width="1.5" stroke-linecap="round" stroke-linejoin="round"/>
<path d="M5.79001 12.7539C3.71001 10.6844 3.82001 7.43496 6.03001 5.48719C8.24001 3.53942 11.71 3.64243 13.79 5.71193C15.78 7.68779 15.78 10.778 13.79 12.7539" stroke="#0039BA" stroke-width="1.5" stroke-linecap="round" stroke-linejoin="round"/>
<path d="M8.09012 14.7297L6.65012 16.4059C5.90012 17.2862 6.05012 18.5691 6.99012 19.2714C7.38012 19.5617 7.86012 19.7209 8.35012 19.7209H11.2201C12.4201 19.7209 13.4001 18.8126 13.4001 17.6889C13.4001 17.2206 13.2301 16.7712 12.9201 16.4059L11.4801 14.7297C10.7401 13.8495 9.37013 13.709 8.44013 14.402C8.31013 14.4956 8.20012 14.608 8.09012 14.7297Z" stroke="#0039BA" stroke-width="1.5" stroke-linecap="round" stroke-linejoin="round"/>
</svg>
