<svg width="20" height="22" viewBox="0 0 20 22" fill="none" xmlns="http://www.w3.org/2000/svg">
<path d="M4.05618 8.03364C2.26618 8.13664 0.896187 9.57874 1.00619 11.2549C1.10619 12.7907 2.41618 14.0174 4.05618 14.1111H13.7162C16.2662 14.1298 18.3562 12.2101 18.3862 9.81285C18.4062 7.65906 16.7262 5.8143 14.4462 5.49592C13.0962 -2.12661 1.30618 0.766956 4.09618 8.03364" stroke="white" stroke-width="1.5" stroke-linecap="round" stroke-linejoin="round"/>
<path d="M9.68604 14.1111V16.9204" stroke="white" stroke-width="1.5" stroke-linecap="round" stroke-linejoin="round"/>
<path d="M11.686 18.793C11.686 19.8231 10.786 20.6659 9.68604 20.6659C8.58604 20.6659 7.68604 19.8231 7.68604 18.793C7.68604 17.763 8.58604 16.9202 9.68604 16.9202C10.786 16.9202 11.686 17.763 11.686 18.793Z" stroke="white" stroke-width="1.5" stroke-linecap="round" stroke-linejoin="round"/>
<path d="M15.686 18.7932H11.686" stroke="white" stroke-width="1.5" stroke-linecap="round" stroke-linejoin="round"/>
<path d="M7.68604 18.7932H3.68604" stroke="white" stroke-width="1.5" stroke-linecap="round" stroke-linejoin="round"/>
</svg>
