<svg viewBox="0 0 18 18" xmlns="http://www.w3.org/2000/svg">
<path d="M0 9.05028C0 13.5251 3.25 17.2458 7.5 18L7.55014 17.9597C7.53342 17.9564 7.5167 17.9531 7.49998 17.9497V11.5643H5.24998V9.0503H7.49998V7.03913C7.49998 4.77656 8.94998 3.51958 11 3.51958C11.65 3.51958 12.35 3.62014 13 3.72069V6.03354H11.85C10.75 6.03354 10.5 6.58662 10.5 7.29053V9.0503H12.9L12.5 11.5643H10.5V17.9497C10.4833 17.9531 10.4666 17.9564 10.4499 17.9597L10.5 18C14.75 17.2458 18 13.5251 18 9.05028C18 4.07263 13.95 0 9 0C4.05 0 0 4.07263 0 9.05028Z"/>
</svg>
