<svg width="42" height="42" viewBox="0 0 42 42" fill="none" xmlns="http://www.w3.org/2000/svg">
<path d="M3.5 19.25V15.75C3.5 9.625 7 7 12.25 7H29.75C35 7 38.5 9.625 38.5 15.75V26.25C38.5 32.375 35 35 29.75 35H21" stroke="white" stroke-width="2" stroke-miterlimit="10" stroke-linecap="round" stroke-linejoin="round"/>
<path d="M21 25.375C23.4162 25.375 25.375 23.4162 25.375 21C25.375 18.5838 23.4162 16.625 21 16.625C18.5838 16.625 16.625 18.5838 16.625 21C16.625 23.4162 18.5838 25.375 21 25.375Z" stroke="white" stroke-width="2" stroke-miterlimit="10" stroke-linecap="round" stroke-linejoin="round"/>
<path d="M32.375 16.625V25.375" stroke="white" stroke-width="2" stroke-miterlimit="10" stroke-linecap="round" stroke-linejoin="round"/>
<path d="M3.5 27.125H12.845C13.965 27.125 14.875 28.035 14.875 29.155V31.395" stroke="white" stroke-width="2" stroke-miterlimit="10" stroke-linecap="round" stroke-linejoin="round"/>
<path d="M5.63495 24.99L3.5 27.1249L5.63495 29.2599" stroke="white" stroke-width="2" stroke-miterlimit="10" stroke-linecap="round" stroke-linejoin="round"/>
<path d="M14.875 36.365H5.52995C4.40995 36.365 3.5 35.4549 3.5 34.3349V32.095" stroke="white" stroke-width="2" stroke-miterlimit="10" stroke-linecap="round" stroke-linejoin="round"/>
<path d="M12.7422 38.5005L14.8771 36.3655L12.7422 34.2305" stroke="white" stroke-width="2" stroke-miterlimit="10" stroke-linecap="round" stroke-linejoin="round"/>
</svg>
