<svg width="42" height="42" viewBox="0 0 42 42" fill="none" xmlns="http://www.w3.org/2000/svg">
<path d="M33.145 9.48502L24.0975 4.25252C22.365 3.25502 19.6525 3.25502 17.92 4.25252L8.785 9.52002C5.1625 11.97 4.9525 12.3375 4.9525 16.24V25.7425C4.9525 29.645 5.1625 30.03 8.855 32.515L17.9025 37.7475C18.7775 38.255 19.8975 38.5 21 38.5C22.1025 38.5 23.2225 38.255 24.08 37.7475L33.215 32.48C36.8375 30.03 37.0475 29.6625 37.0475 25.76V16.24C37.0475 12.3375 36.8375 11.97 33.145 9.48502ZM21 26.6875C17.8675 26.6875 15.3125 24.1325 15.3125 21C15.3125 17.8675 17.8675 15.3125 21 15.3125C24.1325 15.3125 26.6875 17.8675 26.6875 21C26.6875 24.1325 24.1325 26.6875 21 26.6875Z" fill="#003BB3"/>
</svg>
