<svg width="22" height="20" viewBox="0 0 22 20" fill="none" xmlns="http://www.w3.org/2000/svg">
<path d="M14 9.83467C14 11.3891 12.66 12.644 11 12.644C9.34 12.644 8 11.3891 8 9.83467C8 8.2802 9.34 7.02539 11 7.02539C12.66 7.02539 14 8.2802 14 9.83467Z" stroke="#0039BA" stroke-width="1.5" stroke-linecap="round" stroke-linejoin="round"/>
<path d="M1 10.6587V9.01063C1 8.02738 1.85 7.23142 2.9 7.23142C4.71 7.23142 5.45 6.03279 4.54 4.5626C4.02 3.71045 4.33 2.62419 5.24 2.13725L6.97 1.21019C7.77 0.779431 8.79 1.03227 9.25 1.77204L9.36 1.94997C10.26 3.42016 11.74 3.42016 12.65 1.94997L12.76 1.77204C13.22 1.03227 14.24 0.779431 15.04 1.21019L16.77 2.13725C17.68 2.62419 17.99 3.71045 17.47 4.5626C16.56 6.03279 17.3 7.23142 19.11 7.23142C20.16 7.23142 21.01 8.02738 21.01 9.01063V10.6587C21.01 11.642 20.16 12.438 19.11 12.438C17.3 12.438 16.56 13.6366 17.47 15.1068C17.99 15.9589 17.68 17.0452 16.77 17.5321L15.04 18.4592C14.24 18.8899 13.22 18.6371 12.76 17.8973L12.65 17.7194C11.75 16.2492 10.27 16.2492 9.36 17.7194L9.25 17.8973C8.79 18.6371 7.77 18.8899 6.97 18.4592L5.24 17.5321C4.33 17.0452 4.02 15.9589 4.54 15.1068C5.45 13.6366 4.71 12.438 2.9 12.438C1.85 12.438 1 11.642 1 10.6587Z" stroke="#0039BA" stroke-width="1.5" stroke-linecap="round" stroke-linejoin="round"/>
</svg>
