<svg width="25" height="24" viewBox="0 0 25 24" xmlns="http://www.w3.org/2000/svg">
<path d="M21.9 12.95L19.12 14.34C18.93 14.44 18.7 14.4 18.54 14.25L16.67 12.38C16.47 12.18 16.47 11.87 16.67 11.67L18.57 9.76999C18.72 9.61999 18.96 9.57999 19.15 9.67999L21.9 11.06C22.69 11.44 22.69 12.56 21.9 12.95Z"/>
<path d="M16.8 8.48999C17.11 8.63999 17.17 9.05001 16.93 9.29001L15.26 10.96L14.55 11.67C14.35 11.87 14.04 11.87 13.84 11.67L6.69997 4.53C6.29997 4.13 6.76997 3.48001 7.27997 3.73001L16.8 8.48999Z"/>
<path d="M2.5 20.15V3.48002C2.5 3.04002 3.03 2.81001 3.35 3.12001L12.12 11.63C12.33 11.83 12.32 12.16 12.11 12.36L3.34 20.52C3.02 20.82 2.5 20.59 2.5 20.15Z"/>
<path d="M16.7699 15.52L7.37995 20.22C6.86995 20.47 6.39995 19.82 6.79995 19.42L13.8499 12.37C14.0499 12.17 14.3599 12.17 14.5599 12.37L16.9099 14.72C17.1399 14.96 17.0699 15.37 16.7699 15.52Z"/>
</svg>
