<svg width="201" height="52" viewBox="0 0 201 52" fill="none" xmlns="http://www.w3.org/2000/svg">
<path d="M36.5256 22.2129C21.4769 22.2129 12.4626 39.0268 0 39.0268V52H201V27.1049C188.594 27.1049 195.18 -4.63949e-06 182.173 0C167.803 5.12561e-06 162.32 46.0882 145.39 46.0882C132.055 46.0882 122.102 16.7677 109.043 16.7677C95.9838 16.7677 89.019 46.0882 73.3672 46.0882C59.5811 46.0882 49.9652 22.2129 36.5256 22.2129Z" fill="url(#paint0_linear_151_151)"/>
<path d="M109.913 24.5C113.479 24.5 116.325 21.5648 116.325 18C116.325 14.4352 113.479 11.5 109.913 11.5C106.346 11.5 103.5 14.4352 103.5 18C103.5 21.5648 106.346 24.5 109.913 24.5Z" fill="white" stroke="#0067F8" stroke-width="3"/>
<defs>
<linearGradient id="paint0_linear_151_151" x1="100.5" y1="-126.288" x2="100.5" y2="52" gradientUnits="userSpaceOnUse">
<stop stop-color="#0067F8"/>
<stop offset="1" stop-color="#0067F8" stop-opacity="0.02"/>
</linearGradient>
</defs>
</svg>
