<svg width="16" height="21" viewBox="0 0 16 21" fill="none" xmlns="http://www.w3.org/2000/svg">
<path d="M10.2749 16.969L11.7949 18.3924L14.8349 15.5457" stroke="#0039BA" stroke-width="1.5" stroke-linecap="round" stroke-linejoin="round"/>
<path d="M7.9949 9.30897C7.8849 9.29961 7.7749 9.29961 7.6649 9.30897C5.2149 9.2247 3.3049 7.29565 3.3949 5.00141C3.4849 2.70716 5.5449 0.918582 7.9949 1.00286C10.4449 1.08714 12.3549 3.01618 12.2649 5.31043C12.1749 7.48294 10.3149 9.2247 7.9949 9.30897Z" stroke="#0039BA" stroke-width="1.5" stroke-linecap="round" stroke-linejoin="round"/>
<path d="M7.825 19.5535C6.055 19.5816 4.315 19.1321 2.815 18.2613C0.395 16.7443 0.395 14.2721 2.815 12.7644C5.895 11.0414 9.745 11.0414 12.825 12.7644" stroke="#0039BA" stroke-width="1.5" stroke-linecap="round" stroke-linejoin="round"/>
</svg>
