<svg width="46" height="46" viewBox="0 0 46 46" xmlns="http://www.w3.org/2000/svg">
<path d="M15.8293 40.7228C17.0693 39.4826 17.7816 37.8995 17.9662 36.2635C18.2169 34.0867 17.4914 31.8307 15.8293 30.1684C14.84 29.1789 13.6264 28.5192 12.3469 28.2158C9.90652 27.5957 7.20236 28.2422 5.27647 30.1684C3.94418 31.5009 3.21867 33.2027 3.12633 34.9574C3.06038 35.7094 3.12633 36.4878 3.3242 37.2398C3.62759 38.5195 4.28714 39.7333 5.27647 40.7228C8.19169 43.6384 12.9141 43.6384 15.8293 40.7228ZM13.3494 34.0735C14.1145 34.0735 14.7476 34.7067 14.7476 35.4719C14.7344 36.2503 14.1145 36.8704 13.3362 36.8836L11.9511 36.8704L11.9643 38.2029C11.9511 38.9813 11.3312 39.6013 10.5529 39.6145C9.77461 39.6013 9.15464 38.9813 9.14144 38.2029L9.15463 36.8704L7.76958 36.8836C6.99131 36.8704 6.37133 36.2503 6.35814 35.4719C6.37133 35.0893 6.52962 34.7463 6.78025 34.4957C7.03088 34.245 7.37384 34.0867 7.75639 34.0735L9.15464 34.0735L9.15463 32.6223C9.15463 32.2265 9.31293 31.8834 9.56356 31.6328C9.81419 31.3821 10.1572 31.2238 10.5529 31.2238C11.318 31.2238 11.9511 31.8571 11.9511 32.6223L11.9511 34.0735L13.3494 34.0735Z"/>
<path d="M28.9307 7.37126V14.4612H26.1325V7.37126C26.1325 6.8675 25.6847 6.62495 25.3863 6.62495C25.293 6.62495 25.1997 6.64361 25.1064 6.68092L10.3131 12.2596C9.32435 12.6327 8.69009 13.5656 8.69009 14.6291V15.8792C6.99249 17.1479 5.89185 19.1816 5.89185 21.4765V14.6291C5.89185 12.4088 7.25366 10.4311 9.32436 9.6475L24.1364 4.05019C24.5468 3.90093 24.9759 3.82629 25.3863 3.82629C27.2518 3.82629 28.9307 5.33757 28.9307 7.37126Z"/>
<path d="M41.339 27.0567V28.9224C41.339 29.4262 40.9473 29.8367 40.4249 29.8553H37.7013C36.7126 29.8553 35.8172 29.1277 35.7425 28.1575C35.6866 27.5791 35.9104 27.038 36.2835 26.6649C36.6193 26.3104 37.0857 26.1238 37.5894 26.1238H40.4063C40.9473 26.1424 41.339 26.5529 41.339 27.0567Z"/>
<path d="M37.5679 24.1617H39.4707C40.4968 24.1617 41.3362 23.3221 41.3362 22.296V21.475C41.3362 17.6129 38.1835 14.4597 34.322 14.4597H12.9061C11.3204 14.4597 9.86535 14.9821 8.69009 15.8777C6.99249 17.1464 5.89185 19.1801 5.89185 21.475V24.7961C5.89185 25.5051 6.63804 25.9529 7.30962 25.729C8.3543 25.3745 9.45494 25.1879 10.5556 25.1879C16.208 25.1879 20.8158 29.7964 20.8158 35.4496C20.8158 36.793 20.4614 38.267 19.9017 39.573C19.6032 40.2447 20.0696 41.047 20.7971 41.047H34.322C38.1835 41.047 41.3362 37.8938 41.3362 34.0317V33.6772C41.3362 32.651 40.4968 31.8114 39.4707 31.8114H37.8478C36.0569 31.8114 34.3406 30.7106 33.8743 28.9754C33.5012 27.5574 33.9489 26.1768 34.8816 25.2812C35.5719 24.5722 36.5233 24.1617 37.5679 24.1617ZM27.345 23.7886H18.0176C17.2527 23.7886 16.6184 23.1542 16.6184 22.3892C16.6184 21.6243 17.2527 20.9899 18.0176 20.9899H27.345C28.1099 20.9899 28.7441 21.6243 28.7441 22.3892C28.7441 23.1542 28.1099 23.7886 27.345 23.7886Z"/>
</svg>
