<svg viewBox="0 0 17 16" xmlns="http://www.w3.org/2000/svg">
<path d="M8.5 1.4415C10.7696 1.4415 11.0384 1.44963 11.9347 1.48806C12.7634 1.52369 13.2135 1.654 13.5131 1.76356C13.9098 1.90869 14.1929 2.08206 14.4904 2.362C14.7879 2.64194 14.972 2.90844 15.1262 3.28181C15.2426 3.56375 15.3811 3.98738 15.4189 4.76731C15.4598 5.61094 15.4684 5.86394 15.4684 8C15.4684 10.1361 15.4598 10.3891 15.4189 11.2327C15.3811 12.0127 15.2426 12.4362 15.1262 12.7182C14.972 13.0916 14.7878 13.3581 14.4904 13.6381C14.1929 13.918 13.9098 14.0914 13.5131 14.2364C13.2135 14.346 12.7634 14.4764 11.9347 14.5119C11.0385 14.5504 10.7697 14.5586 8.5 14.5586C6.23023 14.5586 5.96142 14.5504 5.06527 14.5119C4.23652 14.4763 3.78648 14.346 3.48693 14.2364C3.09021 14.0914 2.80699 13.918 2.50956 13.6381C2.21213 13.3581 2.02791 13.0916 1.87379 12.7182C1.75737 12.4363 1.61885 12.0127 1.58107 11.2327C1.54016 10.3891 1.53153 10.1361 1.53153 8C1.53153 5.86394 1.54016 5.61094 1.58107 4.76737C1.61892 3.98737 1.75737 3.56375 1.87379 3.28181C2.02791 2.90844 2.21213 2.64194 2.50956 2.362C2.80706 2.082 3.09021 1.90869 3.48693 1.76356C3.78642 1.654 4.23652 1.52369 5.06527 1.48806C5.96155 1.44963 6.23037 1.4415 8.5 1.4415ZM8.5 0C6.19152 0 5.90205 0.0091875 4.99548 0.048125C4.09069 0.087 3.47278 0.22225 2.93217 0.42C2.37316 0.624438 1.89915 0.898 1.42661 1.34275C0.954058 1.7875 0.663465 2.23362 0.44625 2.75969C0.236074 3.26856 0.0924375 3.85012 0.0511328 4.70162C0.00976172 5.55487 0 5.82731 0 8C0 10.1727 0.00976172 10.4451 0.0511328 11.2984C0.0924375 12.1499 0.236074 12.7315 0.44625 13.2403C0.663398 13.7664 0.954058 14.2126 1.42661 14.6573C1.89915 15.1021 2.37316 15.3756 2.93217 15.58C3.47285 15.7778 4.09069 15.913 4.99541 15.9519C5.90205 15.9908 6.19152 16 8.5 16C10.8085 16 11.0979 15.9908 12.0045 15.9519C12.9092 15.913 13.5272 15.7778 14.0678 15.58C14.6268 15.3756 15.1008 15.1021 15.5733 14.6573C16.0459 14.2126 16.3365 13.7664 16.5537 13.2403C16.7639 12.7314 16.9076 12.1499 16.9489 11.2984C16.9902 10.4451 17 10.1727 17 8C17 5.82731 16.9902 5.55487 16.9489 4.70162C16.9076 3.85012 16.7639 3.26856 16.5537 2.75975C16.3365 2.23362 16.0459 1.7875 15.5733 1.34275C15.1008 0.898 14.6268 0.624375 14.0678 0.42C13.5272 0.22225 12.9092 0.087 12.0045 0.048125C11.0979 0.0091875 10.8085 0 8.5 0ZM8.5 3.89187C6.08932 3.89187 4.13512 5.73125 4.13512 8C4.13512 10.2689 6.08932 12.1081 8.5 12.1081C10.9106 12.1081 12.8649 10.2689 12.8649 8C12.8649 5.73119 10.9106 3.89187 8.5 3.89187ZM8.5 10.6667C6.9352 10.6667 5.66664 9.47275 5.66664 8C5.66664 6.52725 6.9352 5.33331 8.5 5.33331C10.0648 5.33331 11.3334 6.52725 11.3334 8C11.3334 9.47275 10.0648 10.6667 8.5 10.6667ZM14.0573 3.72956C14.0573 4.25981 13.6007 4.68956 13.0373 4.68956C12.4739 4.68956 12.0173 4.25981 12.0173 3.72956C12.0173 3.19937 12.4739 2.76956 13.0373 2.76956C13.6007 2.76956 14.0573 3.19937 14.0573 3.72956Z"/>
</svg>
