<svg width="34" height="34" viewBox="0 0 34 34" fill="none" xmlns="http://www.w3.org/2000/svg">
<path d="M24.0833 4.9585H9.91667C5.66667 4.9585 2.83333 7.0835 2.83333 12.0418V21.9585C2.83333 26.9168 5.66667 29.0418 9.91667 29.0418H24.0833C28.3333 29.0418 31.1667 26.9168 31.1667 21.9585V12.0418C31.1667 7.0835 28.3333 4.9585 24.0833 4.9585ZM24.7492 13.586L20.315 17.1277C19.38 17.8785 18.19 18.2468 17 18.2468C15.81 18.2468 14.6058 17.8785 13.685 17.1277L9.25083 13.586C8.7975 13.2177 8.72667 12.5377 9.08083 12.0843C9.44917 11.631 10.115 11.546 10.5683 11.9143L15.0025 15.456C16.0792 16.3202 17.9067 16.3202 18.9833 15.456L23.4175 11.9143C23.8708 11.546 24.5508 11.6168 24.905 12.0843C25.2733 12.5377 25.2025 13.2177 24.7492 13.586Z" fill="#003BB3"/>
</svg>
