<svg width="68" height="72" viewBox="0 0 68 72" fill="none" xmlns="http://www.w3.org/2000/svg">
<g filter="url(#filter0_d_195_3)">
<path opacity="0.4" d="M27.335 5.49L13.1267 10.7258C10.4142 11.7171 8.19247 14.8942 8.19247 17.7408V38.3283C8.19247 40.3871 9.56166 43.1067 11.2408 44.3267L25.4492 54.7729C27.955 56.6283 32.0625 56.6283 34.5683 54.7729L48.7767 44.3267C50.4558 43.0813 51.825 40.3871 51.825 38.3283V17.7408C51.825 14.8942 49.6033 11.7171 46.8908 10.7258L32.6825 5.49C31.21 4.95625 28.8075 4.95625 27.335 5.49Z" fill="#003BB3"/>
<path d="M52.755 17.1816H35.0592C34.5425 17.1816 34.0516 17.2071 33.5866 17.2071C29.1433 17.4612 27.955 19.0625 27.955 24.0442V26.0619C27.955 26.5478 28.3553 26.9417 28.8492 26.9417H58.9391C59.433 26.9417 59.8333 26.5478 59.8333 26.0619V24.0442C59.8333 18.5542 58.4125 17.1816 52.755 17.1816Z" fill="#003BB3"/>
<path d="M28.875 29.7375C28.3812 29.7375 27.9808 30.1314 27.9808 30.6173V36.9558C27.9808 42.4458 29.4017 43.8437 35.0592 43.8437H52.755C58.3091 43.8437 59.7816 42.5221 59.8333 37.2608V30.6173C59.8333 30.1314 59.4329 29.7375 58.9391 29.7375H28.875ZM37.2808 39.3196H34.0517C33.2767 39.3196 32.6566 38.7096 32.6566 37.9471C32.6566 37.1846 33.2767 36.5746 34.0517 36.5746H37.2808C38.0558 36.5746 38.6758 37.1846 38.6758 37.9471C38.6758 38.7096 38.0558 39.3196 37.2808 39.3196ZM47.7433 39.3196H41.3108C40.5358 39.3196 39.9158 38.7096 39.9158 37.9471C39.9158 37.1846 40.5358 36.5746 41.3108 36.5746H47.7433C48.5183 36.5746 49.1383 37.1846 49.1383 37.9471C49.1641 38.7096 48.5183 39.3196 47.7433 39.3196Z" fill="#003BB3"/>
</g>
<defs>
<filter id="filter0_d_195_3" x="-5" y="-1" width="78" height="77" filterUnits="userSpaceOnUse" color-interpolation-filters="sRGB">
<feFlood flood-opacity="0" result="BackgroundImageFix"/>
<feColorMatrix in="SourceAlpha" type="matrix" values="0 0 0 0 0 0 0 0 0 0 0 0 0 0 0 0 0 0 127 0" result="hardAlpha"/>
<feOffset dy="7"/>
<feGaussianBlur stdDeviation="4"/>
<feComposite in2="hardAlpha" operator="out"/>
<feColorMatrix type="matrix" values="0 0 0 0 0 0 0 0 0 0 0 0 0 0 0 0 0 0 0.25 0"/>
<feBlend mode="normal" in2="BackgroundImageFix" result="effect1_dropShadow_195_3"/>
<feBlend mode="normal" in="SourceGraphic" in2="effect1_dropShadow_195_3" result="shape"/>
</filter>
</defs>
</svg>
