<svg width="54" height="54" viewBox="0 0 54 54" fill="none" xmlns="http://www.w3.org/2000/svg">
<path d="M47.8125 49.5H6.1875C5.265 49.5 4.5 48.735 4.5 47.8125C4.5 46.89 5.265 46.125 6.1875 46.125H47.8125C48.735 46.125 49.5 46.89 49.5 47.8125C49.5 48.735 48.735 49.5 47.8125 49.5Z" fill="#0039BA"/>
<path opacity="0.4" d="M46.3275 30.8251L30.06 47.0926C26.865 50.2876 21.7125 50.2876 18.54 47.1151L8.16748 36.7426L35.9775 8.93262L46.35 19.3051C49.5225 22.4776 49.5225 27.6301 46.3275 30.8251Z" fill="#99C2FC"/>
<path d="M35.9775 8.93262L8.14502 36.7426L6.09752 34.6951C2.92502 31.5226 2.92502 26.3701 6.12002 23.1751L22.3875 6.90761C25.5825 3.71261 30.735 3.71261 33.9075 6.88511L35.9775 8.93262Z" fill="#0039BA"/>
<path d="M29.0025 39.6L25.965 42.6375C25.335 43.2675 24.3225 43.2675 23.6925 42.6375C23.0625 42.0075 23.0625 40.995 23.6925 40.365L26.73 37.3275C27.36 36.6975 28.3725 36.6975 29.0025 37.3275C29.6325 37.9575 29.6325 38.97 29.0025 39.6Z" fill="#0039BA"/>
<path d="M38.8576 29.745L32.8051 35.7975C32.1751 36.4275 31.1626 36.4275 30.5326 35.7975C29.9026 35.1675 29.9026 34.155 30.5326 33.525L36.5851 27.4725C37.2151 26.8425 38.2276 26.8425 38.8576 27.4725C39.4651 28.1025 39.4651 29.115 38.8576 29.745Z" fill="#0039BA"/>
</svg>
