<svg width="40" height="40" viewBox="0 0 40 40" fill="none" xmlns="http://www.w3.org/2000/svg">
<path d="M15 3.33337H25C33.3333 3.33337 36.6667 6.66671 36.6667 15V25C36.6667 33.3334 33.3333 36.6667 25 36.6667H15C6.66668 36.6667 3.33334 33.3334 3.33334 25V15C3.33334 6.66671 6.66668 3.33337 15 3.33337Z" stroke="white" stroke-width="2" stroke-linecap="round" stroke-linejoin="round"/>
<path d="M14.2834 25.45L25.1834 14.55" stroke="white" stroke-width="2" stroke-linecap="round" stroke-linejoin="round"/>
<path d="M14.9667 17.2833C16.0989 17.2833 17.0166 16.3656 17.0166 15.2334C17.0166 14.1012 16.0989 13.1833 14.9667 13.1833C13.8345 13.1833 12.9167 14.1012 12.9167 15.2334C12.9167 16.3656 13.8345 17.2833 14.9667 17.2833Z" stroke="white" stroke-width="2" stroke-linecap="round" stroke-linejoin="round"/>
<path d="M25.8667 26.8167C26.9989 26.8167 27.9167 25.8988 27.9167 24.7666C27.9167 23.6345 26.9989 22.7167 25.8667 22.7167C24.7345 22.7167 23.8167 23.6345 23.8167 24.7666C23.8167 25.8988 24.7345 26.8167 25.8667 26.8167Z" stroke="white" stroke-width="2" stroke-linecap="round" stroke-linejoin="round"/>
</svg>
