<svg width="34" height="34" viewBox="0 0 34 34" fill="none" xmlns="http://www.w3.org/2000/svg">
<path d="M15.6542 21.1793L13.0333 23.8002C12.4808 24.3527 11.6025 24.3527 11.0358 23.8143C10.88 23.6585 10.7242 23.5168 10.5683 23.361C9.10918 21.8877 7.79168 20.3435 6.61584 18.7285C5.45418 17.1135 4.51918 15.4985 3.83918 13.8977C3.17334 12.2827 2.83334 10.7385 2.83334 9.26516C2.83334 8.30183 3.00334 7.381 3.34334 6.531C3.68334 5.66683 4.22168 4.8735 4.97251 4.16516C5.87918 3.27266 6.87084 2.8335 7.91918 2.8335C8.31584 2.8335 8.71251 2.9185 9.06668 3.0885C9.43501 3.2585 9.76084 3.5135 10.0158 3.88183L13.3025 8.51433C13.5575 8.8685 13.7417 9.19433 13.8692 9.506C13.9967 9.8035 14.0675 10.101 14.0675 10.3702C14.0675 10.7102 13.9683 11.0502 13.77 11.376C13.5858 11.7018 13.3167 12.0418 12.9767 12.3818L11.9 13.501C11.7442 13.6568 11.6733 13.841 11.6733 14.0677C11.6733 14.181 11.6875 14.2802 11.7158 14.3935C11.7583 14.5068 11.8008 14.5918 11.8292 14.6768C12.0842 15.1443 12.5233 15.7535 13.1467 16.4902C13.7842 17.2268 14.4642 17.9777 15.2008 18.7285C15.3425 18.8702 15.4983 19.0118 15.64 19.1535C16.2067 19.706 16.2208 20.6127 15.6542 21.1793Z" fill="#003BB3"/>
<path d="M31.1242 25.9676C31.1242 26.3643 31.0533 26.7751 30.9117 27.1718C30.8692 27.2851 30.8267 27.3985 30.77 27.5118C30.5292 28.0218 30.2175 28.5035 29.8067 28.9568C29.1125 29.7218 28.3475 30.2743 27.4833 30.6285C27.4692 30.6285 27.455 30.6426 27.4408 30.6426C26.605 30.9826 25.6983 31.1668 24.7208 31.1668C23.2758 31.1668 21.7317 30.8268 20.1025 30.1326C18.4733 29.4385 16.8442 28.5035 15.2292 27.3276C14.6767 26.9168 14.1242 26.506 13.6 26.0668L18.2325 21.4343C18.6292 21.7318 18.9833 21.9585 19.2808 22.1143C19.3517 22.1426 19.4367 22.1851 19.5358 22.2276C19.6492 22.2701 19.7625 22.2843 19.89 22.2843C20.1308 22.2843 20.315 22.1993 20.4708 22.0435L21.5475 20.981C21.9017 20.6268 22.2417 20.3576 22.5675 20.1876C22.8933 19.9893 23.2192 19.8901 23.5733 19.8901C23.8425 19.8901 24.1258 19.9468 24.4375 20.0743C24.7492 20.2018 25.075 20.386 25.4292 20.6268L30.1183 23.956C30.4867 24.211 30.7417 24.5085 30.8975 24.8626C31.0392 25.2168 31.1242 25.571 31.1242 25.9676Z" fill="#003BB3"/>
</svg>
