<svg width="46" height="46" viewBox="0 0 46 46" fill="none" xmlns="http://www.w3.org/2000/svg">
<path d="M42.1667 28.75C42.1667 36.1675 36.1675 42.1667 28.75 42.1667L30.7625 38.8125" stroke="#0067F8" stroke-width="1.5" strokeLinecap="round" strokeLinejoin="round"/>
<path d="M3.83337 17.25C3.83337 9.83254 9.83254 3.83337 17.25 3.83337L15.2375 7.18754" stroke="#0067F8" stroke-width="1.5" strokeLinecap="round" strokeLinejoin="round"/>
<path d="M42.1667 8.05004V8.26087C42.1667 8.79754 41.745 9.21921 41.2083 9.21921H23.9583C23.4217 9.21921 23 8.79754 23 8.26087V8.05004C23 4.67671 23.8433 3.83337 27.255 3.83337H37.9117C41.3233 3.83337 42.1667 4.67671 42.1667 8.05004Z" fill="#0067F8"/>
<path d="M23.9583 11.1359C23.4217 11.1359 23 11.5575 23 12.0942V14.0109V15.9084C23 19.2817 23.8433 20.125 27.255 20.125H37.9117C41.3233 20.125 42.1667 19.2817 42.1667 15.9084V14.0109V12.0942C42.1667 11.5575 41.745 11.1359 41.2083 11.1359H23.9583Z" fill="#0067F8"/>
<path d="M23 30.0917V30.3025C23 30.8392 22.5784 31.2608 22.0417 31.2608H4.79171C4.25504 31.2608 3.83337 30.8392 3.83337 30.3025V30.0917C3.83337 26.7183 4.67671 25.875 8.08837 25.875H18.745C22.1567 25.875 23 26.7183 23 30.0917Z" fill="#0067F8"/>
<path d="M4.79171 33.1775C4.25504 33.1775 3.83337 33.5992 3.83337 34.1358V36.0525V37.95C3.83337 41.3233 4.67671 42.1667 8.08837 42.1667H18.745C22.1567 42.1667 23 41.3233 23 37.95V36.0525V34.1358C23 33.5992 22.5784 33.1775 22.0417 33.1775H4.79171Z" fill="#0067F8"/>
</svg>
