<svg width="22" height="20" viewBox="0 0 22 20" fill="none" xmlns="http://www.w3.org/2000/svg">
<path d="M1.02 6.627V5.69058C0.859998 3.25587 2.85 1.15827 5.45 1.00844C5.64 0.999074 5.83 0.999074 6.02 1.00844H16.02C18.62 0.85861 20.86 2.7221 21.02 5.15681C21.03 5.33473 21.03 5.51266 21.02 5.69058V13.182C21.18 15.6167 19.19 17.7143 16.59 17.8641C16.4 17.8735 16.21 17.8735 16.02 17.8641H15.02" stroke="#0039BA" stroke-width="1.5" stroke-linecap="round" stroke-linejoin="round"/>
<path d="M2.70996 9.16467C7.23996 9.63289 10.82 12.9853 11.32 17.2273" stroke="#0039BA" stroke-width="1.5" stroke-linecap="round" stroke-linejoin="round"/>
<path d="M1.63989 12.311C4.96989 12.6575 7.58989 15.111 7.95989 18.2293" stroke="#0039BA" stroke-width="1.5" stroke-linecap="round" stroke-linejoin="round"/>
<path d="M1 15.8602C2.66 16.0382 3.97 17.2649 4.16 18.8193" stroke="#0039BA" stroke-width="1.5" stroke-linecap="round" stroke-linejoin="round"/>
</svg>
