<svg viewBox="0 0 178 36" fill="none" xmlns="http://www.w3.org/2000/svg">
<g clip-path="url(#clip0_107_1356)">
<path d="M65.5144 30.848C63.4946 30.848 61.7735 30.5132 60.3538 29.8437C58.9342 29.1741 57.8449 28.2494 57.0915 27.0671C56.3354 25.8847 55.96 24.5456 55.96 23.0523H59.2223C59.2223 23.7883 59.4153 24.5243 59.804 25.2603C60.1926 25.9963 60.8456 26.6101 61.7682 27.1016C62.6883 27.5932 63.9361 27.8376 65.5144 27.8376C66.979 27.8376 68.1767 27.6197 69.1099 27.184C70.0431 26.7482 70.7305 26.1796 71.1747 25.4782C71.6188 24.7767 71.8409 24.0115 71.8409 23.1878C71.8409 22.1835 71.4073 21.3545 70.5428 20.6955C69.6783 20.0366 68.412 19.6301 66.7464 19.4733L64.0498 19.2395C61.8978 19.0615 60.1767 18.3919 58.8892 17.2308C57.6017 16.0723 56.9593 14.5445 56.9593 12.6474C56.9593 11.1542 57.3188 9.84956 58.0406 8.73361C58.7623 7.61766 59.7669 6.7435 61.0544 6.10847C62.3419 5.47344 63.8383 5.1546 65.5488 5.1546C67.2593 5.1546 68.7213 5.46813 70.0088 6.09253C71.2963 6.71693 72.3009 7.59375 73.0226 8.71767C73.7444 9.84425 74.1039 11.1887 74.1039 12.7484H70.8415C70.8415 11.9672 70.6591 11.2312 70.2916 10.5404C69.9242 9.84956 69.3531 9.28096 68.5759 8.83458C67.7986 8.3882 66.7887 8.16501 65.5461 8.16501C64.3036 8.16501 63.3545 8.37757 62.5667 8.80004C61.7788 9.22516 61.1893 9.77516 60.8033 10.4554C60.4147 11.1356 60.2217 11.8662 60.2217 12.6474C60.2217 13.5402 60.5653 14.332 61.2527 15.0228C61.9401 15.7136 62.9606 16.1148 64.3142 16.2264L67.0108 16.4602C68.6763 16.5931 70.1119 16.9465 71.3227 17.5151C72.5335 18.0837 73.4641 18.8436 74.1198 19.7895C74.7728 20.738 75.1006 21.8699 75.1006 23.1852C75.1006 24.6784 74.7014 26.0069 73.903 27.1654C73.1046 28.3265 71.9836 29.2299 70.5402 29.8755C69.0967 30.5212 67.4232 30.8454 65.5144 30.8454V30.848Z" fill="#313131"/>
<path d="M84.322 30.848C82.7674 30.848 81.4271 30.5797 80.2929 30.0456C79.1614 29.5115 78.2387 28.8021 77.5302 27.92C76.819 27.0378 76.2929 26.0521 75.9492 24.9601C75.6056 23.868 75.4337 22.7521 75.4337 21.6149V21.0117C75.4337 19.8533 75.6056 18.7267 75.9492 17.632C76.2929 16.5399 76.819 15.5515 77.5302 14.6721C78.2414 13.7899 79.1455 13.0885 80.2427 12.565C81.3425 12.0416 82.6326 11.7786 84.121 11.7786C86.051 11.7786 87.6451 12.1957 88.8983 13.0327C90.1514 13.8696 91.0846 14.9457 91.6953 16.261C92.306 17.5762 92.6101 18.9818 92.6101 20.4777V21.9151H76.8296V19.5052H90.2783L89.546 20.8098C89.546 19.5371 89.3477 18.4397 88.9458 17.5151C88.5466 16.5904 87.9465 15.8704 87.1481 15.3576C86.3497 14.8448 85.3398 14.587 84.1184 14.587C82.897 14.587 81.8051 14.8767 80.9723 15.4559C80.1396 16.0351 79.5183 16.8269 79.1085 17.8313C78.6987 18.8356 78.4925 19.9941 78.4925 21.312C78.4925 22.6298 78.6987 23.7272 79.1085 24.7422C79.5183 25.7572 80.1581 26.5596 81.0226 27.1521C81.8871 27.7446 82.9869 28.0395 84.3193 28.0395C85.7178 28.0395 86.8547 27.7287 87.7324 27.1016C88.6075 26.4772 89.1362 25.7518 89.3133 24.9255H92.3087C92.0628 26.1531 91.5764 27.2132 90.844 28.1033C90.1117 28.9961 89.1917 29.6763 88.0814 30.1439C86.971 30.6115 85.7178 30.8454 84.3193 30.8454L84.322 30.848Z" fill="#313131"/>
<path d="M93.8103 30.2449V12.379H96.3404V20.0419H95.9412C95.9412 18.2803 96.1791 16.7923 96.6576 15.5754C97.1335 14.3612 97.8605 13.4339 98.8387 12.7988C99.8142 12.1638 101.046 11.845 102.535 11.845H102.667C104.909 11.845 106.566 12.5464 107.645 13.952C108.721 15.3576 109.26 17.3875 109.26 20.0419V30.2475H106.064V19.375C106.064 17.9933 105.675 16.8827 104.898 16.0457C104.121 15.2088 103.055 14.7916 101.702 14.7916C100.348 14.7916 99.1718 15.2274 98.3073 16.0962C97.4428 16.9651 97.0092 18.1262 97.0092 19.5769V30.2502H93.8129L93.8103 30.2449Z" fill="#313131"/>
<path d="M119.211 30.848C117.948 30.848 116.782 30.6142 115.716 30.1466C114.651 29.6789 113.726 29.02 112.938 28.1724C112.15 27.3248 111.539 26.3444 111.106 25.2284C110.672 24.1125 110.455 22.9088 110.455 21.6149V21.0117C110.455 19.7417 110.667 18.5487 111.087 17.4327C111.507 16.3168 112.102 15.3363 112.869 14.4887C113.636 13.6412 114.545 12.9769 115.6 12.4986C116.655 12.0204 117.826 11.7786 119.111 11.7786C120.464 11.7786 121.696 12.0629 122.807 12.6315C123.917 13.2001 124.827 14.0875 125.538 15.2912C126.249 16.4948 126.648 18.0571 126.735 19.9755L125.403 17.8339V5.82153H128.599V30.2449H126.069V22.3163H127.002C126.912 24.3463 126.492 25.991 125.736 27.2504C124.983 28.5098 124.033 29.4265 122.889 29.9951C121.747 30.5637 120.52 30.848 119.211 30.848ZM119.642 28.0369C120.729 28.0369 121.718 27.7925 122.606 27.3009C123.494 26.8094 124.203 26.1026 124.737 25.1753C125.268 24.2506 125.535 23.1639 125.535 21.9125V20.374C125.535 19.1465 125.263 18.105 124.721 17.2467C124.176 16.3885 123.454 15.7296 122.556 15.2726C121.657 14.8156 120.676 14.5871 119.61 14.5871C118.434 14.5871 117.398 14.866 116.499 15.424C115.6 15.982 114.902 16.7632 114.402 17.7649C113.903 18.7692 113.654 19.9516 113.654 21.312C113.654 22.6724 113.908 23.8601 114.421 24.875C114.931 25.89 115.642 26.6712 116.552 27.2159C117.461 27.7632 118.492 28.0369 119.647 28.0369H119.642Z" fill="#313131"/>
<path d="M131.394 30.2449V12.3791H133.924V20.0419H133.524C133.524 18.3016 133.752 16.8243 134.207 15.61C134.661 14.3957 135.343 13.4631 136.253 12.8175C137.162 12.1718 138.318 11.8477 139.716 11.8477H139.848C141.247 11.8477 142.405 12.1718 143.327 12.8175C144.247 13.4658 144.93 14.3957 145.374 15.61C145.818 16.8269 146.04 18.3042 146.04 20.0419H145.107C145.107 18.3016 145.339 16.8243 145.805 15.61C146.27 14.3957 146.965 13.4631 147.885 12.8175C148.805 12.1718 149.966 11.8477 151.364 11.8477H151.497C152.895 11.8477 154.061 12.1718 154.992 12.8175C155.925 13.4658 156.617 14.3957 157.072 15.61C157.527 16.8269 157.754 18.3042 157.754 20.0419V30.2475H154.558V19.3405C154.558 17.8897 154.204 16.7711 153.493 15.9767C152.781 15.1849 151.795 14.789 150.529 14.789C149.263 14.789 148.165 15.2061 147.367 16.0431C146.569 16.8801 146.169 18.0465 146.169 19.5397V30.2449H142.973V19.3378C142.973 17.8871 142.619 16.7685 141.908 15.974C141.197 15.1822 140.21 14.7863 138.944 14.7863C137.678 14.7863 136.581 15.2035 135.782 16.0404C134.984 16.8774 134.585 18.0438 134.585 19.5371V30.2422H131.388L131.394 30.2449Z" fill="#313131"/>
<path d="M168.48 30.848C166.925 30.848 165.561 30.5797 164.385 30.0456C163.208 29.5115 162.214 28.8021 161.405 27.92C160.596 27.0378 159.986 26.0521 159.576 24.9601C159.163 23.868 158.96 22.7521 158.96 21.6149V21.0117C158.96 19.8745 159.171 18.7532 159.592 17.6506C160.012 16.5453 160.633 15.5542 161.456 14.6721C162.275 13.7899 163.274 13.0885 164.451 12.565C165.627 12.0416 166.97 11.7786 168.48 11.7786C169.99 11.7786 171.333 12.0416 172.509 12.565C173.685 13.0885 174.685 13.7926 175.504 14.6721C176.324 15.5542 176.948 16.5453 177.368 17.6506C177.789 18.7559 178 19.8745 178 21.0117V21.6149C178 22.7521 177.794 23.868 177.384 24.9601C176.974 26.0521 176.364 27.0405 175.552 27.92C174.74 28.8021 173.749 29.5089 172.572 30.0456C171.396 30.5797 170.032 30.848 168.477 30.848H168.48ZM168.48 27.9705C169.812 27.9705 170.949 27.6755 171.893 27.083C172.837 26.4932 173.559 25.6934 174.056 24.6917C174.555 23.6873 174.804 22.5608 174.804 21.312C174.804 20.0632 174.547 18.902 174.037 17.9003C173.527 16.896 172.8 16.1042 171.856 15.525C170.912 14.9457 169.786 14.6561 168.477 14.6561C167.169 14.6561 166.069 14.9457 165.114 15.525C164.16 16.1042 163.428 16.896 162.918 17.9003C162.407 18.9047 162.151 20.0419 162.151 21.312C162.151 22.582 162.402 23.6873 162.899 24.6917C163.399 25.696 164.12 26.4932 165.064 27.083C166.008 27.6755 167.145 27.9705 168.477 27.9705H168.48Z" fill="#313131"/>
<path d="M43.2409 7.34401L36.4994 0.568607C36.1584 0.225852 35.6984 0.0345459 35.2172 0.0345459H14.5432C14.062 0.0345459 13.602 0.225852 13.261 0.568607L0.563129 13.3276C0.222087 13.6704 0.0317383 14.1327 0.0317383 14.6163C0.0317383 15.0999 0.222087 15.5622 0.563129 15.9049L7.30465 22.6803C8.44674 23.8282 10.3978 23.0151 10.3978 21.3917V12.2728C10.3978 11.2684 11.2094 10.4527 12.2088 10.4527H41.9561C43.5714 10.4527 44.3777 8.49185 43.2383 7.34401H43.2409Z" fill="#0067F8" stroke="#0067F8" stroke-width="0.25" stroke-miterlimit="10"/>
<path d="M3.12486 28.656L9.86638 35.4314C10.2074 35.7742 10.6674 35.9655 11.1486 35.9655H31.8226C32.3038 35.9655 32.7638 35.7742 33.1048 35.4314L45.8027 22.6697C46.1437 22.327 46.3341 21.8647 46.3341 21.3811C46.3341 20.8975 46.1437 20.4352 45.8027 20.0924L39.0611 13.317C37.919 12.1692 35.968 12.9822 35.968 14.6057V23.7246C35.968 24.7289 35.1563 25.5446 34.157 25.5446H4.40707C2.79175 25.5446 1.98541 27.5055 3.12486 28.6533V28.656Z" fill="#0067F8" stroke="#0067F8" stroke-width="0.25" stroke-miterlimit="10"/>
<path d="M25.7606 13.7288H20.6079C19.6837 13.7288 18.9344 14.4818 18.9344 15.4107V20.5893C18.9344 21.5181 19.6837 22.2711 20.6079 22.2711H25.7606C26.6848 22.2711 27.4341 21.5181 27.4341 20.5893V15.4107C27.4341 14.4818 26.6848 13.7288 25.7606 13.7288Z" fill="#0067F8" stroke="#0067F8" stroke-width="0.25" stroke-miterlimit="10"/>
</g>
<defs>
<clipPath id="clip0_107_1356">
<rect width="178" height="36" fill="white"/>
</clipPath>
</defs>
</svg>
