<svg width="55" height="55" viewBox="0 0 55 55" fill="none" xmlns="http://www.w3.org/2000/svg">
<path opacity="0.4" d="M38.4999 4.58325H14.2312C8.91453 4.58325 4.6062 8.89159 4.6062 14.1853V28.3478V28.7833C4.6062 34.0999 8.91453 38.3853 14.2083 38.3853H22.4583C23.7187 38.3853 24.75 39.4166 24.75 40.677V42.5562C24.75 43.8166 23.7187 44.8478 22.4583 44.8478H17.302C16.4083 44.8478 15.675 45.5812 15.675 46.4749C15.675 47.3687 16.4083 48.102 17.302 48.102H35.4749C36.3687 48.102 37.102 47.3687 37.102 46.4749C37.102 45.5812 36.3687 44.8478 35.4749 44.8478H30.3187C29.0583 44.8478 28.027 43.8166 28.027 42.5562V40.677C28.027 39.4166 29.0583 38.3853 30.3187 38.3853H38.4999C43.8166 38.3853 48.102 34.077 48.102 28.7833V28.3478V14.1853C48.102 8.89159 43.7937 4.58325 38.4999 4.58325Z" fill="#99C2FC"/>
<path d="M45.0083 21.7708H32.8854C28.9208 21.7708 27.4771 23.2145 27.4771 27.2249V44.9395C27.4771 48.9728 28.8979 50.3937 32.8854 50.3937H45.0083C48.9729 50.3937 50.4166 48.9499 50.4166 44.9395V27.2249C50.4166 23.1916 48.9958 21.7708 45.0083 21.7708ZM38.9583 46.5666C37.5604 46.5666 36.4375 45.4437 36.4375 44.0458C36.4375 42.6478 37.5604 41.5249 38.9583 41.5249C40.3562 41.5249 41.4791 42.6478 41.4791 44.0458C41.4791 45.4437 40.3562 46.5666 38.9583 46.5666Z" fill="#0039BA"/>
<path opacity="0.4" d="M41.4792 44.0457C41.4792 45.4436 40.3563 46.5666 38.9583 46.5666C37.5604 46.5666 36.4375 45.4436 36.4375 44.0457C36.4375 42.6478 37.5604 41.5249 38.9583 41.5249C40.3563 41.5249 41.4792 42.6707 41.4792 44.0457Z" fill="#292D32"/>
</svg>
