<svg width="46" height="46" viewBox="0 0 46 46" xmlns="http://www.w3.org/2000/svg">
<path d="M14.6625 40.0775C14.605 40.0775 14.5283 40.1159 14.4708 40.1159C10.7525 38.2759 7.72416 35.2284 5.86499 31.51C5.86499 31.4525 5.90332 31.3759 5.90332 31.3184C8.24166 32.0084 10.6567 32.5259 13.0525 32.9284C13.4742 35.3434 13.9725 37.7392 14.6625 40.0775Z"/>
<path d="M40.135 31.5292C38.2375 35.3434 35.075 38.4292 31.2225 40.2884C31.9509 37.8542 32.5642 35.4009 32.9667 32.9284C35.3817 32.5259 37.7584 32.0084 40.0967 31.3184C40.0775 31.395 40.135 31.4717 40.135 31.5292Z"/>
<path d="M40.2884 14.7775C37.8734 14.0492 35.4392 13.455 32.9667 13.0333C32.5642 10.5608 31.97 8.1075 31.2225 5.71167C35.19 7.60917 38.3909 10.81 40.2884 14.7775Z"/>
<path d="M14.6625 5.92249C13.9725 8.26082 13.4742 10.6375 13.0717 13.0525C10.5992 13.4358 8.14584 14.0492 5.71167 14.7775C7.57084 10.925 10.6567 7.76249 14.4708 5.86499C14.5283 5.86499 14.605 5.92249 14.6625 5.92249Z"/>
<path d="M29.6891 12.6309C25.2425 12.1325 20.7575 12.1325 16.3108 12.6309C16.79 10.005 17.4033 7.37921 18.2658 4.84921C18.3041 4.69587 18.285 4.58087 18.3041 4.42754C19.8183 4.06337 21.3708 3.83337 23 3.83337C24.61 3.83337 26.1816 4.06337 27.6766 4.42754C27.6958 4.58087 27.6958 4.69587 27.7341 4.84921C28.5966 7.39837 29.21 10.005 29.6891 12.6309Z"/>
<path d="M12.6309 29.6891C9.98587 29.21 7.37921 28.5966 4.84921 27.7341C4.69587 27.6958 4.58087 27.715 4.42754 27.6958C4.06337 26.1816 3.83337 24.6291 3.83337 23C3.83337 21.39 4.06337 19.8183 4.42754 18.3233C4.58087 18.3041 4.69587 18.3041 4.84921 18.2658C7.39837 17.4225 9.98587 16.79 12.6309 16.3108C12.1517 20.7575 12.1517 25.2425 12.6309 29.6891Z"/>
<path d="M42.1666 23C42.1666 24.6291 41.9366 26.1816 41.5725 27.6958C41.4191 27.715 41.3041 27.6958 41.1508 27.7341C38.6016 28.5775 35.995 29.21 33.3691 29.6891C33.8675 25.2425 33.8675 20.7575 33.3691 16.3108C35.995 16.79 38.6208 17.4033 41.1508 18.2658C41.3041 18.3041 41.4191 18.3233 41.5725 18.3233C41.9366 19.8375 42.1666 21.39 42.1666 23Z"/>
<path d="M29.6891 33.3691C29.21 36.0141 28.5966 38.6208 27.7341 41.1508C27.6958 41.3041 27.6958 41.4191 27.6766 41.5725C26.1816 41.9366 24.61 42.1666 23 42.1666C21.3708 42.1666 19.8183 41.9366 18.3041 41.5725C18.285 41.4191 18.3041 41.3041 18.2658 41.1508C17.4225 38.6016 16.79 36.0141 16.3108 33.3691C18.5341 33.6183 20.7575 33.7908 23 33.7908C25.2425 33.7908 27.485 33.6183 29.6891 33.3691Z"/>
<path d="M30.2131 30.2131C25.4193 30.8179 20.5808 30.8179 15.787 30.2131C15.1822 25.4193 15.1822 20.5808 15.787 15.787C20.5808 15.1822 25.4193 15.1822 30.2131 15.787C30.8179 20.5808 30.8179 25.4193 30.2131 30.2131Z"/>
</svg>
