<svg width="40" height="40" viewBox="0 0 40 40" fill="none" xmlns="http://www.w3.org/2000/svg">
<path d="M30 31.4333H28.7333C27.4 31.4333 26.1333 31.9499 25.2 32.8833L22.35 35.7C21.05 36.9834 18.9333 36.9834 17.6333 35.7L14.7833 32.8833C13.85 31.9499 12.5667 31.4333 11.25 31.4333H10C7.23333 31.4333 5 29.2167 5 26.4833V8.29993C5 5.56659 7.23333 3.34998 10 3.34998H30C32.7667 3.34998 35 5.56659 35 8.29993V26.4833C35 29.2 32.7667 31.4333 30 31.4333Z" stroke="white" stroke-width="2" stroke-miterlimit="10" stroke-linecap="round" stroke-linejoin="round"/>
<path d="M11.6667 15.2667C11.6667 13.7167 12.9333 12.45 14.4833 12.45C16.0333 12.45 17.3 13.7167 17.3 15.2667C17.3 18.4001 12.85 18.7334 11.8666 21.7167C11.6666 22.3334 12.1833 22.95 12.8333 22.95H17.3" stroke="white" stroke-width="2" stroke-linecap="round" stroke-linejoin="round"/>
<path d="M26.7333 22.9334V13.4168C26.7333 12.9834 26.45 12.6 26.0333 12.4833C25.6166 12.3667 25.1667 12.5333 24.9333 12.9C23.7333 14.8333 22.4333 17.0333 21.3 18.9667C21.1166 19.2833 21.1166 19.7 21.3 20.0167C21.4833 20.3334 21.8333 20.5333 22.2166 20.5333H28.3333" stroke="white" stroke-width="2" stroke-linecap="round" stroke-linejoin="round"/>
</svg>
