<svg width="42" height="42" viewBox="0 0 42 42" fill="none" xmlns="http://www.w3.org/2000/svg">
<path d="M38.5 26.25C38.5 33.0225 33.0225 38.5 26.25 38.5L28.0875 35.4375" stroke="#003BB3" stroke-width="1.5" stroke-linecap="round" stroke-linejoin="round"/>
<path d="M3.5 15.75C3.5 8.9775 8.9775 3.5 15.75 3.5L13.9125 6.5625" stroke="#003BB3" stroke-width="1.5" stroke-linecap="round" stroke-linejoin="round"/>
<path d="M38.5 7.35V7.5425C38.5 8.0325 38.115 8.4175 37.625 8.4175H21.875C21.385 8.4175 21 8.0325 21 7.5425V7.35C21 4.27 21.77 3.5 24.885 3.5H34.615C37.73 3.5 38.5 4.27 38.5 7.35Z" fill="#003BB3"/>
<path d="M21.875 10.1675C21.385 10.1675 21 10.5525 21 11.0425V12.7925V14.525C21 17.605 21.77 18.375 24.885 18.375H34.615C37.73 18.375 38.5 17.605 38.5 14.525V12.7925V11.0425C38.5 10.5525 38.115 10.1675 37.625 10.1675H21.875Z" fill="#003BB3"/>
<path d="M21 27.475V27.6675C21 28.1575 20.615 28.5425 20.125 28.5425H4.375C3.885 28.5425 3.5 28.1575 3.5 27.6675V27.475C3.5 24.395 4.27 23.625 7.385 23.625H17.115C20.23 23.625 21 24.395 21 27.475Z" fill="#003BB3"/>
<path d="M4.375 30.2925C3.885 30.2925 3.5 30.6775 3.5 31.1675V32.9175V34.65C3.5 37.73 4.27 38.5 7.385 38.5H17.115C20.23 38.5 21 37.73 21 34.65V32.9175V31.1675C21 30.6775 20.615 30.2925 20.125 30.2925H4.375Z" fill="#003BB3"/>
</svg>
