<svg width="67" height="71" viewBox="0 0 67 71" fill="none" xmlns="http://www.w3.org/2000/svg">
<g filter="url(#filter0_d_193_79)">
<path opacity="0.4" d="M22.4438 53.1462C22.3675 53.1462 22.2658 53.1971 22.1896 53.1971C17.2588 50.7571 13.2429 46.7158 10.7775 41.785C10.7775 41.7087 10.8283 41.6071 10.8283 41.5308C13.9292 42.4458 17.1317 43.1321 20.3088 43.6658C20.8679 46.8683 21.5288 50.0454 22.4438 53.1462Z" fill="white"/>
<path opacity="0.4" d="M56.2225 41.8104C53.7062 46.8683 49.5125 50.9604 44.4037 53.4258C45.3696 50.1979 46.1829 46.9446 46.7167 43.6658C49.9192 43.1321 53.0708 42.4458 56.1717 41.5308C56.1462 41.6325 56.2225 41.7342 56.2225 41.8104Z" fill="white"/>
<path opacity="0.4" d="M56.4258 19.5962C53.2233 18.6304 49.9954 17.8425 46.7167 17.2833C46.1829 14.0046 45.395 10.7512 44.4037 7.57416C49.665 10.0904 53.9096 14.335 56.4258 19.5962Z" fill="white"/>
<path opacity="0.4" d="M22.4437 7.85375C21.5287 10.9546 20.8679 14.1062 20.3342 17.3087C17.0554 17.8171 13.8021 18.6304 10.5742 19.5962C13.0396 14.4875 17.1317 10.2937 22.1896 7.7775C22.2658 7.7775 22.3675 7.85375 22.4437 7.85375Z" fill="white"/>
<path d="M42.3704 16.7496C36.4738 16.0888 30.5263 16.0888 24.6296 16.7496C25.265 13.2675 26.0783 9.78543 27.2221 6.43043C27.2729 6.22709 27.2475 6.07459 27.2729 5.87126C29.2808 5.38834 31.3396 5.08334 33.5 5.08334C35.635 5.08334 37.7192 5.38834 39.7017 5.87126C39.7271 6.07459 39.7271 6.22709 39.7779 6.43043C40.9217 9.81084 41.735 13.2675 42.3704 16.7496Z" fill="white"/>
<path d="M19.7496 39.3704C16.2421 38.735 12.7854 37.9217 9.43042 36.7779C9.22708 36.7271 9.07458 36.7525 8.87125 36.7271C8.38833 34.7192 8.08333 32.6604 8.08333 30.5C8.08333 28.365 8.38833 26.2808 8.87125 24.2983C9.07458 24.2729 9.22708 24.2729 9.43042 24.2221C12.8108 23.1037 16.2421 22.265 19.7496 21.6296C19.1142 27.5262 19.1142 33.4737 19.7496 39.3704Z" fill="white"/>
<path d="M58.9167 30.5C58.9167 32.6604 58.6117 34.7192 58.1287 36.7271C57.9254 36.7525 57.7729 36.7271 57.5696 36.7779C54.1892 37.8962 50.7325 38.735 47.2504 39.3704C47.9112 33.4737 47.9112 27.5262 47.2504 21.6296C50.7325 22.265 54.2146 23.0783 57.5696 24.2221C57.7729 24.2729 57.9254 24.2983 58.1287 24.2983C58.6117 26.3062 58.9167 28.365 58.9167 30.5Z" fill="white"/>
<path d="M42.3704 44.2504C41.735 47.7579 40.9217 51.2146 39.7779 54.5696C39.7271 54.7729 39.7271 54.9254 39.7017 55.1288C37.7192 55.6117 35.635 55.9167 33.5 55.9167C31.3396 55.9167 29.2808 55.6117 27.2729 55.1288C27.2475 54.9254 27.2729 54.7729 27.2221 54.5696C26.1038 51.1892 25.265 47.7579 24.6296 44.2504C27.5779 44.5808 30.5263 44.8096 33.5 44.8096C36.4738 44.8096 39.4475 44.5808 42.3704 44.2504Z" fill="white"/>
<path d="M43.0651 40.0651C36.7082 40.8672 30.2918 40.8672 23.9349 40.0651C23.1328 33.7082 23.1328 27.2918 23.9349 20.9349C30.2918 20.1328 36.7082 20.1328 43.0651 20.9349C43.8672 27.2918 43.8672 33.7082 43.0651 40.0651Z" fill="white"/>
</g>
<defs>
<filter id="filter0_d_193_79" x="-5" y="-1" width="77" height="77" filterUnits="userSpaceOnUse" color-interpolation-filters="sRGB">
<feFlood flood-opacity="0" result="BackgroundImageFix"/>
<feColorMatrix in="SourceAlpha" type="matrix" values="0 0 0 0 0 0 0 0 0 0 0 0 0 0 0 0 0 0 127 0" result="hardAlpha"/>
<feOffset dy="7"/>
<feGaussianBlur stdDeviation="4"/>
<feComposite in2="hardAlpha" operator="out"/>
<feColorMatrix type="matrix" values="0 0 0 0 0 0 0 0 0 0 0 0 0 0 0 0 0 0 0.25 0"/>
<feBlend mode="normal" in2="BackgroundImageFix" result="effect1_dropShadow_193_79"/>
<feBlend mode="normal" in="SourceGraphic" in2="effect1_dropShadow_193_79" result="shape"/>
</filter>
</defs>
</svg>
