<svg viewBox="0 0 23 16" xmlns="http://www.w3.org/2000/svg">
<path d="M22.4924 2.50551C22.3605 2.02123 22.1031 1.57974 21.746 1.22498C21.3889 0.870223 20.9444 0.614585 20.4569 0.483521C18.672 0 11.4885 0 11.4885 0C11.4885 0 4.30468 0.0146358 2.51982 0.498157C2.03227 0.629228 1.5878 0.88488 1.23067 1.23965C0.873533 1.59443 0.616196 2.03594 0.484283 2.52023C-0.0555969 5.67035 -0.265026 10.4704 0.499108 13.4945C0.631034 13.9788 0.888377 14.4203 1.24551 14.775C1.60264 15.1298 2.04711 15.3854 2.53464 15.5165C4.31951 16 11.5032 16 11.5032 16C11.5032 16 18.6868 16 20.4715 15.5165C20.9591 15.3854 21.4036 15.1298 21.7607 14.775C22.1179 14.4203 22.3752 13.9788 22.5072 13.4945C23.0766 10.3399 23.2521 5.54282 22.4924 2.50551Z" fill="white"/>
<path d="M9.20204 11.4285L15.1613 7.99995L9.20204 4.5714V11.4285Z"/>
<path d="M8.70204 11.4285V12.293L9.45139 11.8619L15.4106 8.43335L16.1639 7.99995L15.4106 7.56656L9.45139 4.13801L8.70204 3.70689V4.5714V11.4285ZM9.70204 5.43592L14.1587 7.99995L9.70204 10.564V5.43592Z" stroke="#A0A0A0"/>
</svg>
